<svg width="1300" height="720" viewBox="0 0 1300 720" fill="none" xmlns="http://www.w3.org/2000/svg">
  <defs>
    <linearGradient id="bg" x1="80" y1="60" x2="1220" y2="640" gradientUnits="userSpaceOnUse">
      <stop stop-color="#F8FAFC"/>
      <stop offset="1" stop-color="#E2E8F0"/>
    </linearGradient>
    <linearGradient id="ln" x1="650" y1="120" x2="650" y2="620" gradientUnits="userSpaceOnUse">
      <stop stop-color="#0EA5E9"/>
      <stop offset="1" stop-color="#155E75"/>
    </linearGradient>
  </defs>

  <rect width="1300" height="720" rx="24" fill="url(#bg)"/>
  <text x="650" y="78" text-anchor="middle" fill="#0F172A" font-family="Segoe UI, Arial, sans-serif" font-size="34" font-weight="700">FNLLA Product Surface</text>

  <line x1="650" y1="120" x2="650" y2="610" stroke="url(#ln)" stroke-width="4"/>

  <g fill="#164E63" stroke="#22D3EE" stroke-width="2.2">
    <rect x="540" y="120" width="220" height="72" rx="14" fill="#082F49"/>
    <rect x="140" y="250" width="220" height="72" rx="14"/>
    <rect x="410" y="250" width="220" height="72" rx="14"/>
    <rect x="680" y="250" width="220" height="72" rx="14"/>
    <rect x="950" y="250" width="220" height="72" rx="14"/>
    <rect x="140" y="400" width="220" height="72" rx="14"/>
    <rect x="410" y="400" width="220" height="72" rx="14"/>
    <rect x="680" y="400" width="220" height="72" rx="14"/>
    <rect x="950" y="400" width="220" height="72" rx="14"/>
    <rect x="540" y="550" width="220" height="72" rx="14" fill="#082F49"/>
  </g>

  <g stroke="#0EA5E9" stroke-width="2.8">
    <line x1="650" y1="192" x2="250" y2="250"/>
    <line x1="650" y1="192" x2="520" y2="250"/>
    <line x1="650" y1="192" x2="790" y2="250"/>
    <line x1="650" y1="192" x2="1060" y2="250"/>
    <line x1="250" y1="322" x2="250" y2="400"/>
    <line x1="520" y1="322" x2="520" y2="400"/>
    <line x1="790" y1="322" x2="790" y2="400"/>
    <line x1="1060" y1="322" x2="1060" y2="400"/>
    <line x1="250" y1="472" x2="650" y2="550"/>
    <line x1="520" y1="472" x2="650" y2="550"/>
    <line x1="790" y1="472" x2="650" y2="550"/>
    <line x1="1060" y1="472" x2="650" y2="550"/>
  </g>

  <g fill="#ECFEFF" font-family="Segoe UI, Arial, sans-serif" font-size="24" font-weight="700" text-anchor="middle">
    <text x="650" y="165">Platform Core</text>
    <text x="250" y="296">Framework</text>
    <text x="520" y="296">Starter</text>
    <text x="790" y="296">Packages</text>
    <text x="1060" y="296">Installer</text>
    <text x="250" y="446">Docs</text>
    <text x="520" y="446">Quality</text>
    <text x="790" y="446">Dev Env</text>
    <text x="1060" y="446">VS Code</text>
    <text x="650" y="596">Delivery Teams</text>
  </g>
</svg>
